<svg xmlns="http://www.w3.org/2000/svg" width="600" height="700" viewBox="0 0 600 700" role="img" aria-labelledby="title"><title id="title">Chocolate Sundae cupcake</title>
<defs>
 <linearGradient id="sponge" x1="0" y1="0" x2="0.8" y2="1"><stop stop-color="#dba851"/><stop offset=".3" stop-color="#f3ce80"/><stop offset=".65" stop-color="#cc893c"/><stop offset="1" stop-color="#a95e2b"/></linearGradient>
 <linearGradient id="paper" x1="0" y1="0" x2="1" y2=".1"><stop stop-color="#276f63"/><stop offset=".25" stop-color="#a0d2ba"/><stop offset=".6" stop-color="#56a99a"/><stop offset="1" stop-color="#276f63"/></linearGradient>
 <linearGradient id="cream" x1="0" y1="0" x2=".85" y2=".8"><stop stop-color="#ad7560"/><stop offset=".35" stop-color="#774638"/><stop offset="1" stop-color="#3d211b"/></linearGradient>
 <linearGradient id="swirl" x1="0" y1="0" x2="0.2" y2="1"><stop stop-color="#ad7560"/><stop offset=".28" stop-color="#774638"/><stop offset=".85" stop-color="#3d211b"/><stop offset="1" stop-color="#774638"/></linearGradient>
 <radialGradient id="red" cx=".35" cy=".2" r=".85"><stop stop-color="#ff7780"/><stop offset=".35" stop-color="#e72e43"/><stop offset=".72" stop-color="#b7112c"/><stop offset="1" stop-color="#790f23"/></radialGradient>
 <linearGradient id="chip" x1="0" y1="0" x2="1" y2="1"><stop stop-color="#804533"/><stop offset=".4" stop-color="#53291f"/><stop offset="1" stop-color="#25140f"/></linearGradient>
 <filter id="blur"><feGaussianBlur stdDeviation="15"/></filter>
 <filter id="smudge"><feGaussianBlur stdDeviation="3"/></filter>
 <clipPath id="linerclip"><path d="M128 422 Q300 461 474 421 L426 592 Q306 653 172 591Z"/></clipPath>
 <clipPath id="bite"><path d="M0 0H600V198H462 C424 198 394 225 397 255 C392 268 404 283 414 288 C393 307 399 332 416 340 C397 361 410 394 436 403 C451 420 480 428 509 416 H600V700H0Z"/></clipPath>
 </defs>
<ellipse cx="304" cy="637" rx="160" ry="22" fill="#73322d" opacity=".16" filter="url(#blur)"/>
<g >
<path d="M119 385 C129 326 181 334 209 317 C254 303 359 309 405 330 C448 330 478 354 476 395 L463 440 Q295 490 132 438Z" fill="url(#sponge)"/>
<ellipse cx="363" cy="427" rx="2.1" ry="1.5" fill="#9d622b" opacity=".23"/>
<ellipse cx="154" cy="446" rx="2.7" ry="1.9" fill="#9d622b" opacity=".23"/>
<ellipse cx="375" cy="439" rx="2.6" ry="1.8" fill="#9d622b" opacity=".23"/>
<ellipse cx="309" cy="365" rx="3.0" ry="2.1" fill="#9d622b" opacity=".23"/>
<ellipse cx="295" cy="363" rx="2.7" ry="1.9" fill="#9d622b" opacity=".23"/>
<ellipse cx="273" cy="416" rx="2.6" ry="1.8" fill="#9d622b" opacity=".23"/>
<ellipse cx="311" cy="430" rx="2.5" ry="1.8" fill="#9d622b" opacity=".23"/>
<ellipse cx="270" cy="405" rx="1.3" ry="0.9" fill="#9d622b" opacity=".23"/>
<ellipse cx="410" cy="426" rx="2.6" ry="1.8" fill="#9d622b" opacity=".23"/>
<ellipse cx="234" cy="369" rx="1.6" ry="1.1" fill="#9d622b" opacity=".23"/>
<ellipse cx="206" cy="391" rx="2.2" ry="1.5" fill="#9d622b" opacity=".23"/>
<ellipse cx="438" cy="374" rx="2.9" ry="2.0" fill="#9d622b" opacity=".23"/>
<ellipse cx="142" cy="392" rx="3.2" ry="2.2" fill="#9d622b" opacity=".23"/>
<ellipse cx="163" cy="361" rx="1.3" ry="0.9" fill="#9d622b" opacity=".23"/>
<ellipse cx="298" cy="377" rx="1.3" ry="0.9" fill="#9d622b" opacity=".23"/>
<ellipse cx="344" cy="368" rx="2.8" ry="2.0" fill="#9d622b" opacity=".23"/>
<ellipse cx="318" cy="419" rx="2.6" ry="1.8" fill="#9d622b" opacity=".23"/>
<ellipse cx="371" cy="390" rx="1.8" ry="1.2" fill="#9d622b" opacity=".23"/>
<ellipse cx="241" cy="384" rx="2.0" ry="1.4" fill="#9d622b" opacity=".23"/>
<ellipse cx="135" cy="356" rx="3.1" ry="2.2" fill="#9d622b" opacity=".23"/>
<ellipse cx="298" cy="409" rx="1.8" ry="1.3" fill="#9d622b" opacity=".23"/>
<ellipse cx="402" cy="373" rx="2.8" ry="1.9" fill="#9d622b" opacity=".23"/>
<ellipse cx="415" cy="423" rx="2.1" ry="1.5" fill="#9d622b" opacity=".23"/>
<ellipse cx="271" cy="424" rx="2.7" ry="1.9" fill="#9d622b" opacity=".23"/>
<ellipse cx="228" cy="398" rx="1.7" ry="1.2" fill="#9d622b" opacity=".23"/>
<ellipse cx="352" cy="416" rx="2.6" ry="1.8" fill="#9d622b" opacity=".23"/>
<ellipse cx="195" cy="403" rx="1.7" ry="1.2" fill="#9d622b" opacity=".23"/>
<ellipse cx="396" cy="418" rx="2.1" ry="1.5" fill="#9d622b" opacity=".23"/>
<ellipse cx="311" cy="365" rx="1.8" ry="1.2" fill="#9d622b" opacity=".23"/>
<ellipse cx="334" cy="395" rx="1.2" ry="0.9" fill="#9d622b" opacity=".23"/>
<ellipse cx="405" cy="415" rx="2.8" ry="2.0" fill="#9d622b" opacity=".23"/>
<ellipse cx="448" cy="400" rx="2.0" ry="1.4" fill="#9d622b" opacity=".23"/>
<ellipse cx="172" cy="400" rx="2.3" ry="1.6" fill="#9d622b" opacity=".23"/>
<ellipse cx="421" cy="356" rx="2.0" ry="1.4" fill="#9d622b" opacity=".23"/>
<ellipse cx="446" cy="424" rx="1.8" ry="1.2" fill="#9d622b" opacity=".23"/>
<ellipse cx="232" cy="398" rx="2.1" ry="1.5" fill="#9d622b" opacity=".23"/>
<ellipse cx="229" cy="371" rx="2.3" ry="1.6" fill="#9d622b" opacity=".23"/>
<ellipse cx="259" cy="357" rx="2.1" ry="1.4" fill="#9d622b" opacity=".23"/>
<ellipse cx="302" cy="436" rx="2.2" ry="1.5" fill="#9d622b" opacity=".23"/>
<ellipse cx="240" cy="353" rx="2.1" ry="1.5" fill="#9d622b" opacity=".23"/>
<ellipse cx="314" cy="363" rx="1.9" ry="1.3" fill="#9d622b" opacity=".23"/>
<ellipse cx="210" cy="385" rx="1.6" ry="1.1" fill="#9d622b" opacity=".23"/>
<ellipse cx="382" cy="407" rx="2.2" ry="1.5" fill="#9d622b" opacity=".23"/>
<ellipse cx="228" cy="402" rx="1.5" ry="1.0" fill="#9d622b" opacity=".23"/>
<ellipse cx="195" cy="397" rx="3.0" ry="2.1" fill="#9d622b" opacity=".23"/>
<ellipse cx="259" cy="380" rx="2.4" ry="1.7" fill="#9d622b" opacity=".23"/>
<ellipse cx="406" cy="399" rx="3.0" ry="2.1" fill="#9d622b" opacity=".23"/>
<ellipse cx="390" cy="439" rx="2.2" ry="1.5" fill="#9d622b" opacity=".23"/>
<ellipse cx="373" cy="380" rx="1.9" ry="1.4" fill="#9d622b" opacity=".23"/>
<ellipse cx="411" cy="396" rx="2.1" ry="1.5" fill="#9d622b" opacity=".23"/>
<ellipse cx="153" cy="440" rx="3.2" ry="2.2" fill="#9d622b" opacity=".23"/>
<ellipse cx="239" cy="403" rx="1.7" ry="1.2" fill="#9d622b" opacity=".23"/>
<ellipse cx="149" cy="373" rx="1.3" ry="0.9" fill="#9d622b" opacity=".23"/>
<ellipse cx="254" cy="394" rx="1.6" ry="1.1" fill="#9d622b" opacity=".23"/>
<ellipse cx="396" cy="355" rx="1.6" ry="1.1" fill="#9d622b" opacity=".23"/>
<ellipse cx="373" cy="419" rx="1.9" ry="1.3" fill="#9d622b" opacity=".23"/>
<ellipse cx="308" cy="449" rx="1.6" ry="1.1" fill="#9d622b" opacity=".23"/>
<ellipse cx="451" cy="419" rx="1.5" ry="1.1" fill="#9d622b" opacity=".23"/>
<ellipse cx="161" cy="448" rx="1.9" ry="1.4" fill="#9d622b" opacity=".23"/>
<ellipse cx="272" cy="374" rx="2.4" ry="1.7" fill="#9d622b" opacity=".23"/>
<ellipse cx="236" cy="442" rx="3.0" ry="2.1" fill="#9d622b" opacity=".23"/>
<ellipse cx="325" cy="368" rx="2.3" ry="1.6" fill="#9d622b" opacity=".23"/>
<ellipse cx="283" cy="413" rx="2.6" ry="1.8" fill="#9d622b" opacity=".23"/>
<ellipse cx="237" cy="373" rx="2.7" ry="1.9" fill="#9d622b" opacity=".23"/>
<ellipse cx="332" cy="369" rx="3.1" ry="2.1" fill="#9d622b" opacity=".23"/>
<ellipse cx="203" cy="412" rx="1.6" ry="1.2" fill="#9d622b" opacity=".23"/>
<ellipse cx="275" cy="378" rx="1.3" ry="0.9" fill="#9d622b" opacity=".23"/>
<ellipse cx="397" cy="409" rx="1.2" ry="0.9" fill="#9d622b" opacity=".23"/>
<ellipse cx="442" cy="404" rx="2.9" ry="2.0" fill="#9d622b" opacity=".23"/>
<ellipse cx="196" cy="372" rx="1.4" ry="0.9" fill="#9d622b" opacity=".23"/>
<ellipse cx="159" cy="397" rx="1.3" ry="0.9" fill="#9d622b" opacity=".23"/>
<ellipse cx="226" cy="370" rx="3.1" ry="2.2" fill="#9d622b" opacity=".23"/>
<ellipse cx="366" cy="442" rx="1.6" ry="1.1" fill="#9d622b" opacity=".23"/>
<ellipse cx="453" cy="361" rx="1.5" ry="1.1" fill="#9d622b" opacity=".23"/>
<ellipse cx="341" cy="385" rx="2.9" ry="2.0" fill="#9d622b" opacity=".23"/>
<ellipse cx="143" cy="431" rx="2.1" ry="1.4" fill="#9d622b" opacity=".23"/>
<ellipse cx="368" cy="355" rx="1.9" ry="1.3" fill="#9d622b" opacity=".23"/>
<ellipse cx="362" cy="381" rx="2.3" ry="1.6" fill="#9d622b" opacity=".23"/>
<ellipse cx="397" cy="412" rx="1.6" ry="1.1" fill="#9d622b" opacity=".23"/>
<ellipse cx="389" cy="366" rx="1.8" ry="1.3" fill="#9d622b" opacity=".23"/>
<ellipse cx="155" cy="434" rx="2.3" ry="1.6" fill="#9d622b" opacity=".23"/>
<ellipse cx="256" cy="403" rx="1.7" ry="1.2" fill="#9d622b" opacity=".23"/>
<ellipse cx="175" cy="434" rx="1.5" ry="1.1" fill="#9d622b" opacity=".23"/>
<ellipse cx="420" cy="437" rx="2.2" ry="1.6" fill="#9d622b" opacity=".23"/>
<ellipse cx="421" cy="361" rx="2.4" ry="1.7" fill="#9d622b" opacity=".23"/>
<ellipse cx="156" cy="442" rx="1.9" ry="1.4" fill="#9d622b" opacity=".23"/>
<ellipse cx="154" cy="366" rx="1.7" ry="1.2" fill="#9d622b" opacity=".23"/>
<ellipse cx="219" cy="366" rx="1.6" ry="1.1" fill="#9d622b" opacity=".23"/>
<ellipse cx="318" cy="439" rx="2.5" ry="1.8" fill="#9d622b" opacity=".23"/>
<ellipse cx="161" cy="426" rx="3.2" ry="2.2" fill="#9d622b" opacity=".23"/>
<ellipse cx="264" cy="444" rx="3.0" ry="2.1" fill="#9d622b" opacity=".23"/>
<ellipse cx="186" cy="375" rx="1.5" ry="1.1" fill="#9d622b" opacity=".23"/>
<ellipse cx="330" cy="364" rx="2.1" ry="1.4" fill="#9d622b" opacity=".23"/>
<ellipse cx="236" cy="389" rx="2.9" ry="2.0" fill="#9d622b" opacity=".23"/>
<path d="M128 422 Q300 461 474 421 L426 592 Q306 653 172 591Z" fill="url(#paper)"/>
<g clip-path="url(#linerclip)">
<path d="M121 421 L169.0 630 L176.0 631 L131 421Z" fill="#276f63" opacity=".4"/><path d="M131 424 L176.0 629" stroke="#a0d2ba" stroke-width="4" opacity=".65"/>
<path d="M139 421 L182.8 630 L189.8 631 L149 421Z" fill="#276f63" opacity=".4"/><path d="M149 424 L189.8 629" stroke="#a0d2ba" stroke-width="4" opacity=".65"/>
<path d="M157 421 L196.6 630 L203.6 631 L167 421Z" fill="#276f63" opacity=".4"/><path d="M167 424 L203.6 629" stroke="#a0d2ba" stroke-width="4" opacity=".65"/>
<path d="M175 421 L210.4 630 L217.4 631 L185 421Z" fill="#276f63" opacity=".4"/><path d="M185 424 L217.4 629" stroke="#a0d2ba" stroke-width="4" opacity=".65"/>
<path d="M193 421 L224.2 630 L231.2 631 L203 421Z" fill="#276f63" opacity=".4"/><path d="M203 424 L231.2 629" stroke="#a0d2ba" stroke-width="4" opacity=".65"/>
<path d="M211 421 L238.0 630 L245.0 631 L221 421Z" fill="#276f63" opacity=".4"/><path d="M221 424 L245.0 629" stroke="#a0d2ba" stroke-width="4" opacity=".65"/>
<path d="M229 421 L251.8 630 L258.8 631 L239 421Z" fill="#276f63" opacity=".4"/><path d="M239 424 L258.8 629" stroke="#a0d2ba" stroke-width="4" opacity=".65"/>
<path d="M247 421 L265.6 630 L272.6 631 L257 421Z" fill="#276f63" opacity=".4"/><path d="M257 424 L272.6 629" stroke="#a0d2ba" stroke-width="4" opacity=".65"/>
<path d="M265 421 L279.4 630 L286.4 631 L275 421Z" fill="#276f63" opacity=".4"/><path d="M275 424 L286.4 629" stroke="#a0d2ba" stroke-width="4" opacity=".65"/>
<path d="M283 421 L293.2 630 L300.2 631 L293 421Z" fill="#276f63" opacity=".4"/><path d="M293 424 L300.2 629" stroke="#a0d2ba" stroke-width="4" opacity=".65"/>
<path d="M301 421 L307.0 630 L314.0 631 L311 421Z" fill="#276f63" opacity=".4"/><path d="M311 424 L314.0 629" stroke="#a0d2ba" stroke-width="4" opacity=".65"/>
<path d="M319 421 L320.8 630 L327.8 631 L329 421Z" fill="#276f63" opacity=".4"/><path d="M329 424 L327.8 629" stroke="#a0d2ba" stroke-width="4" opacity=".65"/>
<path d="M337 421 L334.6 630 L341.6 631 L347 421Z" fill="#276f63" opacity=".4"/><path d="M347 424 L341.6 629" stroke="#a0d2ba" stroke-width="4" opacity=".65"/>
<path d="M355 421 L348.4 630 L355.4 631 L365 421Z" fill="#276f63" opacity=".4"/><path d="M365 424 L355.4 629" stroke="#a0d2ba" stroke-width="4" opacity=".65"/>
<path d="M373 421 L362.2 630 L369.2 631 L383 421Z" fill="#276f63" opacity=".4"/><path d="M383 424 L369.2 629" stroke="#a0d2ba" stroke-width="4" opacity=".65"/>
<path d="M391 421 L376.0 630 L383.0 631 L401 421Z" fill="#276f63" opacity=".4"/><path d="M401 424 L383.0 629" stroke="#a0d2ba" stroke-width="4" opacity=".65"/>
<path d="M409 421 L389.8 630 L396.8 631 L419 421Z" fill="#276f63" opacity=".4"/><path d="M419 424 L396.8 629" stroke="#a0d2ba" stroke-width="4" opacity=".65"/>
<path d="M427 421 L403.6 630 L410.6 631 L437 421Z" fill="#276f63" opacity=".4"/><path d="M437 424 L410.6 629" stroke="#a0d2ba" stroke-width="4" opacity=".65"/>
<path d="M445 421 L417.4 630 L424.4 631 L455 421Z" fill="#276f63" opacity=".4"/><path d="M455 424 L424.4 629" stroke="#a0d2ba" stroke-width="4" opacity=".65"/>
<path d="M463 421 L431.2 630 L438.2 631 L473 421Z" fill="#276f63" opacity=".4"/><path d="M473 424 L438.2 629" stroke="#a0d2ba" stroke-width="4" opacity=".65"/>
</g><path d="M129 421 Q146 440 154 429 Q166 447 177 435 Q188 452 199 440 Q212 458 223 445 Q235 461 246 448 Q260 465 271 450 Q284 468 296 452 Q309 468 321 452 Q334 467 347 450 Q360 465 373 447 Q386 459 399 442 Q413 452 426 437 Q441 446 453 431 Q465 438 474 421" fill="none" stroke="#ffe3d0" stroke-opacity=".36" stroke-width="4"/><path d="M176 590 Q303 642 425 591" fill="none" stroke="#fff0d8" stroke-opacity=".22" stroke-width="4"/>
<path d="M118 402 C103 367 129 337 151 324 C133 301 164 264 184 251 C169 228 193 201 222 185 C212 158 254 143 266 117 C276 96 285 74 286 53 C305 80 306 106 322 126 C338 145 368 150 368 179 C396 191 420 207 413 236 C445 250 451 281 439 297 C472 323 479 357 459 380 C482 414 449 442 416 446 C379 464 213 465 160 446 C132 439 105 424 118 402Z" fill="url(#cream)"/>
<path d="M148 340 C201 370 363 385 436 335 C460 350 463 364 450 381 C394 424 200 422 137 385 C127 373 130 353 148 340Z" fill="url(#swirl)"/>
<path d="M177 276 C228 310 342 325 405 284 C431 294 438 309 424 326 C378 361 216 352 160 324 C143 309 150 290 177 276Z" fill="url(#swirl)"/>
<path d="M208 217 C251 242 336 258 382 230 C408 237 414 252 395 269 C349 296 225 286 184 262 C172 248 185 228 208 217Z" fill="url(#swirl)"/>
<path d="M252 158 C280 176 330 188 353 171 C373 177 378 192 359 205 C330 229 248 213 219 199 C210 185 231 169 252 158Z" fill="url(#swirl)"/>
<path d="M270 116 C291 125 319 136 331 153 C315 161 291 155 269 145 C256 140 256 130 270 116Z" fill="url(#swirl)"/>
<path d="M155 367 C222 401 358 402 431 365 M180 303 C240 334 347 339 405 313 M213 245 C261 269 336 272 381 250 M247 182 C275 197 318 204 348 193" fill="none" stroke="#fff" stroke-width="4" opacity=".15" stroke-linecap="round"/>
<path d="M291 71 C288 100 310 125 320 131" fill="none" stroke="#fff" stroke-width="5" opacity=".17" stroke-linecap="round"/>
<g transform="translate(307 139) scale(0.94)"><path d="M-2-9 Q-3-57 29-76" fill="none" stroke="#526444" stroke-width="7" stroke-linecap="round"/><path d="M9-47 Q31-65 42-47 Q20-34 9-47" fill="#718651"/><ellipse cy="15" rx="34" ry="32" fill="#74202b" opacity=".16" filter="url(#smudge)"/><path d="M0-10 C-41-24-45 26-22 42 C-10 51-4 39 3 39 C18 46 44 29 35 4 C29-13 13-19 0-10Z" fill="url(#red)"/><path d="M-25 3 Q-25-8-13-10" fill="none" stroke="#ffd4c9" stroke-width="7" stroke-linecap="round" opacity=".9"/><ellipse cx="-17" cy="17" rx="3" ry="5" fill="#ffc5bb" opacity=".4"/><path d="M-4-9 Q3-4 9-11" fill="none" stroke="#800d22" stroke-width="4" stroke-linecap="round"/></g><path d="M191 217 Q239 233 277 219 T395 241 L399 263 Q345 241 309 252 T201 240Z" fill="#48261d" opacity=".85"/><path d="M158 296 Q212 317 257 304 T420 318 L426 335 Q365 324 324 337 T161 317Z" fill="#442219" opacity=".8"/><g transform="translate(211 280) rotate(1)"><path d="M-11 11 Q-8.8 0 0 -11 Q8.8 0 11 11Z" fill="url(#chip)"/><path d="M-6.6 5.5 L0 -5.5" stroke="#b47f59" stroke-width="2" opacity=".65"/></g><g transform="translate(359 301) rotate(9)"><path d="M-9 9 Q-7.2 0 0 -9 Q7.2 0 9 9Z" fill="url(#chip)"/><path d="M-5.3999999999999995 4.5 L0 -4.5" stroke="#b47f59" stroke-width="2" opacity=".65"/></g><g transform="translate(280 350) rotate(0)"><path d="M-11 11 Q-8.8 0 0 -11 Q8.8 0 11 11Z" fill="url(#chip)"/><path d="M-6.6 5.5 L0 -5.5" stroke="#b47f59" stroke-width="2" opacity=".65"/></g><g transform="translate(401 383) rotate(16)"><path d="M-10 10 Q-8.0 0 0 -10 Q8.0 0 10 10Z" fill="url(#chip)"/><path d="M-6.0 5.0 L0 -5.0" stroke="#b47f59" stroke-width="2" opacity=".65"/></g><g transform="translate(218 390) rotate(8)"><path d="M-8 8 Q-6.4 0 0 -8 Q6.4 0 8 8Z" fill="url(#chip)"/><path d="M-4.8 4.0 L0 -4.0" stroke="#b47f59" stroke-width="2" opacity=".65"/></g><g transform="translate(351 230) rotate(1)"><path d="M-8 8 Q-6.4 0 0 -8 Q6.4 0 8 8Z" fill="url(#chip)"/><path d="M-4.8 4.0 L0 -4.0" stroke="#b47f59" stroke-width="2" opacity=".65"/></g><g transform="translate(225 186) rotate(15)"><path d="M-7 7 Q-5.6000000000000005 0 0 -7 Q5.6000000000000005 0 7 7Z" fill="url(#chip)"/><path d="M-4.2 3.5 L0 -3.5" stroke="#b47f59" stroke-width="2" opacity=".65"/></g>
</g>
</svg>