<svg xmlns="http://www.w3.org/2000/svg" width="1000" height="760" viewBox="0 0 1000 760" role="img" aria-labelledby="title"><title id="title">Cherry Dolly's signature matte cream cupcake gift box with cherry red lettering and mint and pink details</title>
<defs>
<linearGradient id="front" x1="0" y1="0" x2=".8" y2="1"><stop stop-color="#fff9e7"/><stop offset=".35" stop-color="#f6eedb"/><stop offset="1" stop-color="#d8cbb2"/></linearGradient>
<linearGradient id="top" x1=".2" y1="0" x2=".7" y2="1"><stop stop-color="#fffff2"/><stop offset="1" stop-color="#e8dcc6"/></linearGradient>
<linearGradient id="side" x1="0" y1="0" x2="1" y2=".2"><stop stop-color="#dfd4bd"/><stop offset="1" stop-color="#c5b79d"/></linearGradient>
<linearGradient id="mint" x1="0" y1="0" x2="1" y2="1"><stop stop-color="#bddec9"/><stop offset="1" stop-color="#85b7a3"/></linearGradient>
<pattern id="check" width="50" height="50" patternUnits="userSpaceOnUse"><path d="M0 0H25V25H0ZM25 25H50V50H25Z" fill="#e9aeb3"/><path d="M25 0H50V25H25ZM0 25H25V50H0Z" fill="#fae8d8"/></pattern>
<pattern id="sidecheck" width="50" height="50" patternUnits="userSpaceOnUse"><path d="M0 0H25V25H0ZM25 25H50V50H25Z" fill="#91b6a0"/><path d="M25 0H50V25H25ZM0 25H25V50H0Z" fill="#dcd8ba"/></pattern>
<filter id="shadow"><feGaussianBlur stdDeviation="20"/></filter>
<clipPath id="frontclip"><path d="M141 294 L672 351 L688 633 L155 574Z"/></clipPath>
<clipPath id="topclip"><path d="M141 294 L341 170 L864 217 L672 351Z"/></clipPath>
<clipPath id="sideclip"><path d="M672 351 L864 217 L868 496 L688 633Z"/></clipPath>
<path id="curve" d="M260 479 Q400 509 566 505"/>
</defs>
<ellipse cx="500" cy="644" rx="320" ry="39" fill="#663629" opacity=".2" transform="rotate(-5 500 644)" filter="url(#shadow)"/>
<path d="M141 294 L341 170 L864 217 L868 496 L688 633 L155 574Z" fill="#bcb198"/>
<path d="M672 351 L864 217 L868 496 L688 633Z" fill="url(#side)"/>
<g clip-path="url(#sideclip)"><path d="M672 351L864 217L865 267L675 402Z" fill="url(#mint)"/><path d="M681 540L866 405L868 477L686 612Z" fill="url(#sidecheck)"/><path d="M787 369l15-11 2 39-15 11z M775 376l-12 9 1 40 13-10z" fill="#b23241" opacity=".9"/><path d="M771 348 Q769 329 779 313 M797 329 Q796 313 805 299" fill="none" stroke="#6f7152" stroke-width="3"/><ellipse cx="769" cy="352" rx="12" ry="18" fill="#bc3c48" transform="rotate(30 769 352)"/><ellipse cx="796" cy="333" rx="12" ry="18" fill="#bc3c48" transform="rotate(30 796 333)"/><path d="M734 465l7-15 6 6 7-6-5 16-6-5z M814 293l7-15 6 6 7-6-5 16-6-5z" fill="#bd4550"/></g>
<path d="M141 294 L672 351 L688 633 L155 574Z" fill="url(#front)"/>
<g clip-path="url(#frontclip)"><path d="M148 521L684 580L688 632L155 574Z" fill="url(#check)" transform="rotate(6 410 550)"/><path d="M151 564L686 623L688 633L155 574Z" fill="#eac5b7" opacity=".6"/>
<path d="M141 294 L672 351 L674 378 L143 322Z" fill="#e3a8ad"/><path d="M142 312 L673 369" fill="none" stroke="#ffede0" stroke-width="2" opacity=".8"/>
<g transform="translate(192 367) rotate(6)"><path d="M0 52L8 27 16 43 30 37 21 52 25 65 12 59 0 70 6 53Z" fill="#bf3044"/><path d="M413 13L421-12 429 4 443-2 434 13 438 26 425 20 413 31 419 14Z" fill="#bf3044"/><path d="M8 116L12 104 17 112 26 110 20 119 23 127 15 125 8 132 10 122Z" fill="#89b5a0"/><path d="M407 94L411 82 416 90 425 88 419 97 422 105 414 103 407 110 409 100Z" fill="#89b5a0"/></g>
<g transform="translate(411 397) rotate(6)"><text x="0" y="-40" text-anchor="middle" font-family="Georgia, serif" font-size="14" letter-spacing="5" fill="#a6434d">A LITTLE BOX OF JOY</text><text x="-5" y="33" text-anchor="middle" font-family="Georgia, 'Times New Roman', serif" font-size="80" font-weight="bold" font-style="italic" letter-spacing="-5" fill="#bc2a3e">Cherry</text><text x="3" y="105" text-anchor="middle" font-family="Georgia, 'Times New Roman', serif" font-size="80" font-weight="bold" font-style="italic" letter-spacing="-4" fill="#bc2a3e">Dolly</text><path d="M-68 114Q0 127 74 114" fill="none" stroke="#ba3444" stroke-width="3" stroke-linecap="round"/><text x="0" y="148" text-anchor="middle" font-family="Arial, sans-serif" font-size="11" letter-spacing="3.5" font-weight="bold" fill="#974550">BAKED FOR HAPPY DAYS</text></g>
</g>
<path d="M141 294 L341 170 L864 217 L672 351Z" fill="url(#top)"/>
<g clip-path="url(#topclip)"><path d="M201 260 L395 174 L455 180 L263 307Z" fill="#b9d4bd" opacity=".95"/><path d="M655 202L729 206L535 337L461 330Z" fill="#e6b1b5"/>
<g transform="matrix(1 .085 -.68 .45 550 257)"><ellipse rx="118" ry="99" fill="#fff6dd" stroke="#c85462" stroke-width="2.5"/><ellipse rx="107" ry="88" fill="none" stroke="#d7a790" stroke-width="1" stroke-dasharray="2 5"/><text x="0" y="-38" text-anchor="middle" font-family="Arial, sans-serif" font-size="12" letter-spacing="3" fill="#b53649">HELLO, SWEET THING</text><text x="0" y="4" text-anchor="middle" font-family="Georgia, serif" font-weight="bold" font-style="italic" font-size="39" letter-spacing="-2" fill="#bf3045">Cherry Dolly</text><path d="M-12 30Q-14 5 1-7 M16 25Q18 2 5-9" fill="none" stroke="#71956c" stroke-width="3"/><circle cx="-13" cy="39" r="13" fill="#c42e45"/><circle cx="17" cy="34" r="13" fill="#c42e45"/><path d="M-17 30l3-3 M13 25l4-1" stroke="#ffd4c5" stroke-width="3" stroke-linecap="round"/><text x="0" y="72" text-anchor="middle" font-family="Arial, sans-serif" font-size="10" letter-spacing="3" fill="#a33d4a">MADE WITH A LITTLE LOVE</text></g>
<path d="M280 209l7-7 2 8 10 3-11 4-5 8-3-8-9-1z M762 266l7-7 2 8 10 3-11 4-5 8-3-8-9-1z" fill="#c14652" opacity=".8"/>
<path d="M304 192l5-3 M817 243l5-3 M362 289l5-3 M687 302l5-3" stroke="#be4350" stroke-width="5" stroke-linecap="round" opacity=".6"/>
</g>
<path d="M141 294 L672 351 L864 217 M672 351L688 633" fill="none" stroke="#fff9e8" stroke-width="3" opacity=".75"/>
<path d="M152 332L674 387 M678 402L865 273" fill="none" stroke="#a99b82" stroke-width="1.3" opacity=".5"/>
<path d="M341 170L864 217L868 496" fill="none" stroke="#eee4cc" stroke-width="2" opacity=".8"/>
<path d="M674 385L681 501L675 506L669 393Z" fill="#87775f" opacity=".25"/>
<g clip-path="url(#frontclip)" fill="#8e725a" opacity=".09"><circle cx="200" cy="560" r="0.6"/><circle cx="581" cy="412" r="0.7"/><circle cx="463" cy="542" r="0.7"/><circle cx="536" cy="511" r="0.7"/><circle cx="350" cy="537" r="0.8"/><circle cx="158" cy="374" r="0.7"/><circle cx="577" cy="505" r="0.7"/><circle cx="663" cy="328" r="0.6"/><circle cx="229" cy="579" r="0.6"/><circle cx="507" cy="437" r="0.4"/><circle cx="378" cy="504" r="0.5"/><circle cx="190" cy="608" r="0.4"/><circle cx="305" cy="495" r="0.8"/><circle cx="241" cy="549" r="0.7"/><circle cx="404" cy="514" r="0.5"/><circle cx="268" cy="602" r="0.5"/><circle cx="157" cy="597" r="0.7"/><circle cx="452" cy="362" r="0.5"/><circle cx="255" cy="602" r="0.7"/><circle cx="315" cy="550" r="0.7"/><circle cx="387" cy="346" r="0.5"/><circle cx="253" cy="389" r="0.6"/><circle cx="413" cy="587" r="0.7"/><circle cx="663" cy="408" r="0.4"/><circle cx="435" cy="606" r="0.5"/><circle cx="433" cy="439" r="0.4"/><circle cx="167" cy="514" r="0.8"/><circle cx="633" cy="330" r="0.5"/><circle cx="157" cy="470" r="0.5"/><circle cx="520" cy="350" r="0.5"/><circle cx="610" cy="394" r="0.8"/><circle cx="357" cy="536" r="0.4"/><circle cx="285" cy="549" r="0.7"/><circle cx="269" cy="354" r="0.5"/><circle cx="185" cy="515" r="0.6"/><circle cx="539" cy="498" r="0.8"/><circle cx="382" cy="372" r="0.4"/><circle cx="457" cy="383" r="0.4"/><circle cx="365" cy="442" r="0.6"/><circle cx="624" cy="448" r="0.4"/><circle cx="597" cy="515" r="0.4"/><circle cx="483" cy="600" r="0.4"/><circle cx="602" cy="540" r="0.6"/><circle cx="400" cy="592" r="0.4"/><circle cx="399" cy="438" r="0.7"/><circle cx="506" cy="544" r="0.8"/><circle cx="588" cy="523" r="0.8"/><circle cx="634" cy="479" r="0.4"/><circle cx="582" cy="336" r="0.5"/><circle cx="399" cy="431" r="0.8"/><circle cx="399" cy="581" r="0.6"/><circle cx="598" cy="614" r="0.8"/><circle cx="388" cy="329" r="0.5"/><circle cx="442" cy="520" r="0.7"/><circle cx="478" cy="352" r="0.4"/><circle cx="189" cy="577" r="0.8"/><circle cx="251" cy="393" r="0.7"/><circle cx="664" cy="580" r="0.5"/><circle cx="321" cy="383" r="0.5"/><circle cx="369" cy="495" r="0.6"/><circle cx="550" cy="393" r="0.8"/><circle cx="302" cy="592" r="0.4"/><circle cx="339" cy="398" r="0.8"/><circle cx="241" cy="602" r="0.6"/><circle cx="565" cy="333" r="0.7"/><circle cx="523" cy="569" r="0.5"/><circle cx="415" cy="502" r="0.4"/><circle cx="153" cy="511" r="0.5"/><circle cx="524" cy="562" r="0.7"/><circle cx="480" cy="567" r="0.4"/><circle cx="362" cy="542" r="0.6"/><circle cx="304" cy="477" r="0.6"/><circle cx="171" cy="550" r="0.8"/><circle cx="636" cy="367" r="0.7"/><circle cx="452" cy="547" r="0.8"/><circle cx="477" cy="584" r="0.8"/><circle cx="349" cy="554" r="0.8"/><circle cx="397" cy="548" r="0.4"/><circle cx="405" cy="579" r="0.5"/><circle cx="582" cy="367" r="0.4"/><circle cx="365" cy="407" r="0.5"/><circle cx="152" cy="400" r="0.8"/><circle cx="337" cy="400" r="0.8"/><circle cx="413" cy="358" r="0.6"/><circle cx="347" cy="502" r="0.7"/><circle cx="338" cy="571" r="0.5"/><circle cx="503" cy="455" r="0.4"/><circle cx="279" cy="527" r="0.8"/><circle cx="205" cy="460" r="0.7"/><circle cx="453" cy="520" r="0.4"/><circle cx="304" cy="455" r="0.7"/><circle cx="479" cy="427" r="0.5"/><circle cx="159" cy="533" r="0.7"/><circle cx="312" cy="497" r="0.5"/><circle cx="594" cy="551" r="0.7"/><circle cx="472" cy="539" r="0.7"/><circle cx="181" cy="395" r="0.8"/><circle cx="249" cy="374" r="0.6"/><circle cx="627" cy="616" r="0.4"/><circle cx="203" cy="533" r="0.6"/><circle cx="495" cy="467" r="0.6"/><circle cx="182" cy="464" r="0.5"/><circle cx="636" cy="472" r="0.5"/><circle cx="620" cy="446" r="0.7"/><circle cx="643" cy="540" r="0.8"/><circle cx="230" cy="380" r="0.8"/><circle cx="238" cy="340" r="0.4"/><circle cx="324" cy="611" r="0.8"/><circle cx="199" cy="483" r="0.8"/><circle cx="600" cy="552" r="0.5"/><circle cx="214" cy="521" r="0.7"/><circle cx="608" cy="531" r="0.5"/><circle cx="574" cy="431" r="0.6"/><circle cx="246" cy="569" r="0.8"/><circle cx="201" cy="535" r="0.5"/><circle cx="549" cy="368" r="0.5"/><circle cx="647" cy="495" r="0.4"/><circle cx="285" cy="605" r="0.6"/><circle cx="513" cy="524" r="0.4"/><circle cx="274" cy="508" r="0.4"/><circle cx="395" cy="453" r="0.6"/><circle cx="461" cy="390" r="0.4"/><circle cx="531" cy="343" r="0.7"/><circle cx="674" cy="505" r="0.7"/><circle cx="340" cy="473" r="0.5"/><circle cx="366" cy="570" r="0.6"/><circle cx="477" cy="461" r="0.8"/><circle cx="454" cy="532" r="0.5"/><circle cx="612" cy="606" r="0.8"/><circle cx="614" cy="427" r="0.7"/><circle cx="348" cy="615" r="0.4"/><circle cx="241" cy="414" r="0.4"/><circle cx="419" cy="431" r="0.5"/><circle cx="260" cy="451" r="0.5"/><circle cx="545" cy="604" r="0.7"/></g></svg>